<?xml version="1.0" encoding="UTF-8" standalone="no"?>
<!-- Created with Inkscape (http://www.inkscape.org/) -->

<svg
   width="20mm"
   height="20mm"
   viewBox="0 0 20 20"
   version="1.1"
   id="svg1"
   xml:space="preserve"
   xmlns="http://www.w3.org/2000/svg"
   xmlns:svg="http://www.w3.org/2000/svg"><defs
     id="defs1" /><g
     id="layer1"><g
       id="g7"
       transform="translate(-55.441136,-90.671426)"><path
         style="fill:#ffd42a;fill-opacity:1;stroke-width:0.232781"
         d="m 65.639969,110.13388 c -0.245236,-0.13907 -0.284545,-0.23194 -0.28866,-0.68202 -0.003,-0.33064 -0.02076,-0.38134 -0.09112,-0.26033 -0.04805,0.0826 -0.07437,0.31361 -0.05851,0.51325 0.03331,0.41888 -0.09501,0.48329 -0.309766,0.15552 -0.209719,-0.32007 -0.103113,-0.92001 0.214837,-1.20911 0.271458,-0.2468 0.229328,-0.30373 -0.06976,-0.0943 -0.220445,0.15443 -0.178034,0.19525 -0.861562,-0.82957 -0.612155,-0.91783 -1.003862,-1.58441 -1.260537,-2.14505 -0.207683,-0.45365 -0.220216,-0.55202 -0.225578,-1.77079 -0.004,-0.92653 -0.03506,-1.31986 -0.109868,-1.39471 -0.08418,-0.0842 -0.09206,-0.0496 -0.04106,0.1806 0.0765,0.34517 0.07346,0.69859 -0.01482,1.728 -0.06505,0.75841 -0.05914,0.80485 0.16702,1.31392 0.260122,0.58552 0.848856,1.52109 1.546336,2.45732 0.460737,0.61844 0.497026,0.71107 0.408252,1.0421 -0.08871,0.33076 -0.893623,0.47263 -1.253072,0.22086 -0.155766,-0.1091 -0.180617,-0.17998 -0.136802,-0.39008 0.139081,-0.66691 0.134395,-0.85398 -0.0339,-1.35355 -0.217175,-0.64469 -0.655758,-1.20631 -1.391698,-1.78215 -0.605036,-0.4734 -1.117969,-1.17652 -1.207866,-1.6557 -0.05216,-0.27807 -0.18881,-0.44617 -0.206209,-0.25367 -0.02369,0.26206 -0.136034,-0.435 -0.144808,-0.89849 -0.0054,-0.28228 -0.04666,-0.51325 -0.09183,-0.51325 -0.04517,0 -0.08212,-0.12715 -0.08212,-0.28257 0,-0.15541 -0.03695,-0.30541 -0.08212,-0.33333 -0.112642,-0.0697 -0.09225,-0.5879 0.03876,-0.98543 0.09883,-0.29986 0.109008,-0.30833 0.116869,-0.0972 0.0047,0.12721 0.100991,0.35243 0.21391,0.50047 0.112916,0.14804 0.205302,0.33035 0.205302,0.40512 0,0.18935 0.382182,0.17826 0.485116,-0.0141 0.04417,-0.0825 0.105656,-0.34119 0.136649,-0.57485 0.031,-0.23363 0.08934,-0.4248 0.129655,-0.4248 0.04032,0 0.114704,-0.0909 0.165308,-0.20193 0.07506,-0.16473 0.06368,-0.24416 -0.06175,-0.43113 -0.0853,-0.127157 -0.154472,-0.375435 -0.15536,-0.557669 -0.0015,-0.294809 -0.02419,-0.331098 -0.221906,-0.353938 -0.162465,-0.01874 -0.24584,0.02431 -0.317561,0.164241 -0.05349,0.104327 -0.164291,0.245122 -0.246224,0.312865 -0.08194,0.06776 -0.187884,0.25252 -0.235446,0.410601 -0.07525,0.25012 -0.08025,0.22347 -0.0385,-0.205304 0.09182,-0.942934 0.559273,-2.00055 1.179628,-2.668897 0.261113,-0.28131 0.404726,-0.389709 0.380778,-0.287412 -0.02115,0.09032 -0.05977,0.29357 -0.08583,0.451652 -0.04324,0.262339 -0.03947,0.269507 0.04323,0.08215 0.182624,-0.413777 0.331949,-0.705881 0.534995,-1.046536 0.122476,-0.205483 0.226886,-0.534088 0.2544,-0.800669 0.04841,-0.468971 0.145454,-0.587524 0.218887,-0.267379 0.02331,0.101625 0.02584,-0.02537 0.0056,-0.282213 -0.04786,-0.607743 0.104432,-3.124563 0.213605,-3.529986 0.04655,-0.172883 0.115823,-0.314333 0.153934,-0.314333 0.163526,0 1.231779,1.18747 1.773011,1.97088 0.171622,0.248414 0.283619,0.377752 0.248884,0.287422 -0.161453,-0.419891 -0.157204,-0.427666 0.297495,-0.544443 0.472671,-0.12139 2.415883,-0.155912 2.796824,-0.04968 0.196193,0.05471 0.217567,0.0924 0.174507,0.307705 -0.07489,0.374413 0.0191,0.294359 0.252214,-0.214819 0.263967,-0.576576 0.861179,-1.478558 1.180687,-1.783211 l 0.242734,-0.23145 0.165169,0.27251 c 0.303699,0.501072 0.426597,1.146626 0.483762,2.541081 0.04899,1.195022 0.04129,1.333299 -0.06915,1.242202 -0.109287,-0.09015 -0.116598,-0.05397 -0.06064,0.300041 0.07308,0.462288 0.242821,0.821538 0.595682,1.260727 0.182119,0.226668 0.25362,0.409432 0.269377,0.688552 0.0118,0.208984 0.06082,0.419334 0.108933,0.467451 0.04812,0.04813 0.08691,0.126279 0.08622,0.173704 -6.99e-4,0.04747 -0.04027,0.03075 -0.08795,-0.03699 -0.06663,-0.09473 -0.07928,-0.06245 -0.05465,0.139373 0.01918,0.157256 -1.44e-4,0.242672 -0.04817,0.212992 -0.04741,-0.0293 -0.06126,0.02286 -0.03386,0.127633 0.02553,0.09761 0.01259,0.156333 -0.02882,0.130738 -0.04133,-0.02555 -0.103102,0.02911 -0.137253,0.121416 -0.03416,0.09234 -0.283282,0.431941 -0.553617,0.754695 -0.434544,0.518801 -0.579365,0.628574 -1.2494,0.947088 -0.416837,0.19813 -0.943432,0.40308 -1.170209,0.45543 -0.226781,0.0524 -0.412328,0.12578 -0.412328,0.16319 0,0.23662 1.509737,-0.27124 2.155649,-0.72516 l 0.390072,-0.274112 v 0.283432 c 0,0.15587 -0.04239,0.37643 -0.09419,0.49013 -0.07219,0.15845 -0.07053,0.23525 0.0071,0.32875 0.05945,0.0716 0.0729,0.1659 0.03261,0.22826 -0.03776,0.0585 -0.08885,0.51274 -0.113532,1.00956 l -0.04487,0.90333 -0.541302,1.08667 c -0.321612,0.64563 -0.596644,1.32887 -0.67766,1.68345 -0.07499,0.32824 -0.178155,0.73756 -0.229239,0.9096 -0.06997,0.23562 -0.06899,0.37889 0.0039,0.58068 0.05328,0.14732 0.0931,0.41305 0.08848,0.59051 l -0.0083,0.32265 -0.08561,-0.2669 c -0.123457,-0.38483 -0.231362,-0.32821 -0.17387,0.0913 0.04612,0.33654 0.03625,0.36058 -0.16388,0.39883 -0.273188,0.0521 -0.298949,0.0208 -0.298949,-0.3649 0,-0.21404 -0.03023,-0.30096 -0.09151,-0.26309 -0.05468,0.0338 -0.07435,0.18446 -0.04887,0.37439 0.03507,0.26141 0.01778,0.31784 -0.09737,0.31784 -0.218156,0 -0.336825,-0.17055 -0.340001,-0.48862 l -0.0028,-0.29153 -0.122365,0.20531 c -0.1177,0.19747 -0.121758,0.18808 -0.106504,-0.24637 0.0088,-0.24841 -0.0064,-0.54404 -0.03377,-0.65696 -0.02728,-0.11291 -0.07008,-0.46659 -0.09508,-0.78592 l -0.04546,-0.58063 0.447768,-0.14114 c 0.295205,-0.0931 0.595717,-0.27537 0.881993,-0.53507 0.238822,-0.21664 0.508132,-0.4358 0.598462,-0.487 0.154749,-0.0877 0.155326,-0.0932 0.0099,-0.0956 -0.08486,-9.6e-4 -0.296248,0.12576 -0.469759,0.28252 -0.382688,0.34572 -1.224196,0.78254 -1.507553,0.78254 -0.113556,0 -0.37243,0.0444 -0.575278,0.0987 -0.525985,0.14068 -0.768897,0.0328 -0.945064,-0.41952 -0.08179,-0.21004 -0.165118,-0.32285 -0.198531,-0.26879 -0.06883,0.11137 0.06469,0.61072 0.260559,0.97446 0.594357,1.10376 0.911978,1.61617 1.288575,2.07882 0.238979,0.29357 0.512581,0.66311 0.608005,0.8212 0.182318,0.30203 0.226663,0.77705 0.092,0.98543 -0.05911,0.0915 -0.07992,0.0428 -0.08086,-0.18885 -0.0015,-0.32095 -0.248012,-0.91483 -0.307241,-0.73954 -0.01823,0.0539 0.0061,0.17162 0.0543,0.26149 0.264897,0.49495 -0.06671,1.07749 -0.613367,1.07749 -0.293577,0 -0.296838,-0.004 -0.236828,-0.26687 0.06246,-0.27398 0.05607,-0.80631 -0.01045,-0.87286 -0.02053,-0.0206 -0.03731,0.1454 -0.03731,0.36871 0,0.65558 -0.321569,0.93294 -0.780141,0.6729 z"
         id="path8" /><path
         style="fill:#2b1100;fill-opacity:1;stroke-width:0.232781"
         d="m 65.479651,110.26578 c -0.08717,-0.0638 -0.238088,-0.11589 -0.335371,-0.11589 -0.232953,0 -0.448692,-0.24714 -0.448692,-0.51398 0,-0.20189 -0.01464,-0.20945 -0.266348,-0.13725 -0.487162,0.13972 -0.936205,0.0937 -1.186566,-0.12168 l -0.230271,-0.19808 0.139365,-0.37602 c 0.12817,-0.34583 0.129067,-0.41073 0.01117,-0.80791 -0.300062,-1.01077 -0.548599,-1.34598 -1.757462,-2.37037 -0.315735,-0.26756 -0.562724,-0.58806 -0.844076,-1.0953 -0.347524,-0.62655 -0.40761,-0.80689 -0.475936,-1.42842 -0.105435,-0.95909 -0.114792,-1.01761 -0.18972,-1.18649 -0.148777,-0.33533 0.3305,-3.068779 0.648159,-3.696617 0.34335,-0.678627 0.981717,-1.477552 1.342721,-1.680447 0.180461,-0.101424 0.3535,-0.248896 0.384531,-0.327717 0.161728,-0.410779 0.31392,-1.421675 0.372269,-2.472693 0.10192,-1.835894 0.254167,-2.720993 0.468033,-2.720993 0.144491,0 0.969894,0.834538 1.441677,1.457631 0.17954,0.237119 0.335827,0.431129 0.347306,0.431129 0.01148,0 0.182568,-0.05757 0.380203,-0.127925 0.704105,-0.250666 2.479446,-0.24175 3.150667,0.01583 0.0645,0.02475 0.211193,-0.145792 0.3758,-0.436902 0.36191,-0.640038 0.964734,-1.405986 1.153781,-1.465988 0.08423,-0.02674 0.19097,-0.02524 0.237187,0.0034 0.159659,0.09868 0.412074,0.696108 0.528229,1.250261 0.12303,0.586946 0.192454,2.186891 0.131266,3.025069 -0.03234,0.443049 -0.0096,0.541168 0.206162,0.888065 0.469241,0.754552 0.545721,0.951776 0.554125,1.428956 0.01166,0.662246 -0.203742,1.224077 -0.670469,1.748763 l -0.396247,0.445455 -0.05434,1.642403 -0.05434,1.64241 -0.575522,1.14967 c -0.444591,0.88814 -0.605647,1.30848 -0.707949,1.84771 -0.07284,0.38391 -0.169203,0.77815 -0.214153,0.8761 -0.04494,0.0979 -0.05596,0.3012 -0.02449,0.45166 0.03148,0.15046 0.07652,0.44754 0.100115,0.66017 0.04089,0.36874 0.03019,0.39434 -0.231706,0.55401 -0.174995,0.10669 -0.417101,0.16752 -0.667541,0.16771 -0.36367,2.3e-4 -0.386593,0.0122 -0.307539,0.15992 0.135241,0.25269 0.123993,0.79453 -0.02109,1.01595 -0.227431,0.34711 -0.754418,0.53546 -1.496563,0.53489 -0.436077,-2.4e-4 -0.711308,-0.0396 -0.816367,-0.1164 z m 0.812622,-0.21629 c 0.07385,-0.10545 0.127836,-0.35396 0.127836,-0.58852 0,-0.22331 0.01678,-0.38922 0.03731,-0.3687 0.06656,0.0666 0.07295,0.59888 0.01045,0.87284 -0.06001,0.26321 -0.05675,0.2669 0.236827,0.2669 0.546654,0 0.878265,-0.58255 0.613367,-1.07752 -0.0481,-0.0898 -0.07254,-0.20753 -0.0543,-0.26148 0.05922,-0.17528 0.305947,0.41859 0.307241,0.73955 9.31e-4,0.2317 0.02174,0.28031 0.08086,0.18884 0.134671,-0.20839 0.09032,-0.68341 -0.092,-0.98543 -0.09543,-0.15808 -0.369027,-0.52762 -0.608004,-0.8212 -0.376599,-0.46264 -0.694219,-0.97505 -1.288577,-2.07882 -0.195863,-0.36372 -0.329386,-0.8631 -0.260558,-0.97446 0.03341,-0.0541 0.116741,0.0587 0.198531,0.26878 0.176166,0.45239 0.419078,0.56022 0.945064,0.41954 0.202847,-0.0543 0.461721,-0.0986 0.575277,-0.0986 0.283357,0 1.124866,-0.43681 1.507553,-0.78255 0.173511,-0.15676 0.384901,-0.2839 0.46976,-0.28251 0.145372,0.002 0.144795,0.007 -0.0099,0.0956 -0.09032,0.0512 -0.35964,0.27033 -0.598462,0.48699 -0.286275,0.25971 -0.586786,0.442 -0.881993,0.53507 l -0.447768,0.14114 0.04546,0.58063 c 0.025,0.31934 0.0678,0.673 0.09509,0.78592 0.02729,0.11292 0.04248,0.40856 0.03377,0.65696 -0.01525,0.43446 -0.01119,0.44384 0.106505,0.24636 l 0.122364,-0.20529 0.0028,0.29151 c 0.0032,0.31808 0.121843,0.48862 0.34,0.48862 0.115149,0 0.132436,-0.0564 0.09737,-0.31784 -0.02548,-0.18993 -0.0058,-0.34058 0.04888,-0.37438 0.06127,-0.0379 0.0915,0.049 0.0915,0.26309 0,0.38568 0.02577,0.41713 0.298949,0.3649 0.200132,-0.0382 0.210009,-0.0623 0.163881,-0.39884 -0.05749,-0.41944 0.05041,-0.47608 0.173869,-0.0913 l 0.08561,0.26689 0.0083,-0.32265 c 0.0046,-0.17745 -0.0352,-0.44319 -0.08848,-0.59053 -0.07297,-0.20177 -0.07394,-0.34503 -0.0039,-0.58065 0.05109,-0.17205 0.154244,-0.58137 0.229239,-0.90961 0.08101,-0.35459 0.356048,-1.03781 0.677661,-1.68346 l 0.541302,-1.08665 0.04487,-0.90333 c 0.02468,-0.49682 0.07576,-0.95113 0.113531,-1.00957 0.04031,-0.0624 0.02683,-0.15663 -0.0326,-0.22826 -0.0776,-0.0935 -0.07926,-0.17032 -0.0071,-0.32874 0.0518,-0.1137 0.09419,-0.33428 0.09419,-0.49016 v -0.283486 l -0.390072,0.274126 c -0.645911,0.4539 -2.155648,0.96177 -2.155648,0.72515 0,-0.0374 0.185547,-0.11084 0.412327,-0.1632 0.226778,-0.0523 0.753374,-0.25728 1.170209,-0.45543 0.668137,-0.3176 0.815435,-0.428967 1.24389,-0.940572 0.730318,-0.872057 0.841383,-1.17498 0.765567,-2.088091 -0.02312,-0.278332 -0.103071,-0.477469 -0.280261,-0.698013 -0.352863,-0.439187 -0.522607,-0.798439 -0.595684,-1.260727 -0.05595,-0.354013 -0.04865,-0.390189 0.06064,-0.30004 0.110438,0.09109 0.118135,-0.04717 0.06915,-1.242202 -0.05717,-1.394454 -0.180064,-2.040009 -0.483764,-2.541081 l -0.165167,-0.27251 -0.242735,0.23145 c -0.319508,0.304653 -0.91672,1.206635 -1.180688,1.78321 -0.233109,0.50918 -0.327096,0.589233 -0.252213,0.21482 0.04306,-0.215307 0.02169,-0.252998 -0.174507,-0.307707 -0.380942,-0.106226 -2.324152,-0.0717 -2.796824,0.04968 -0.454699,0.116777 -0.458947,0.124552 -0.297494,0.544442 0.03474,0.09033 -0.07726,-0.03901 -0.248885,-0.287422 -0.541232,-0.783408 -1.609485,-1.970879 -1.773011,-1.970879 -0.03811,0 -0.107382,0.14145 -0.153935,0.314333 -0.109169,0.405422 -0.261465,2.922243 -0.213603,3.529986 0.02022,0.256841 0.01771,0.383835 -0.0056,0.282211 -0.07343,-0.320143 -0.170485,-0.201589 -0.218888,0.26738 -0.02752,0.266582 -0.131923,0.595187 -0.2544,0.800669 -0.203047,0.340654 -0.352372,0.632767 -0.534994,1.046544 -0.08271,0.187386 -0.08647,0.180218 -0.04323,-0.08215 0.02606,-0.158082 0.06468,-0.361327 0.08582,-0.451662 0.02394,-0.1023 -0.119665,0.0058 -0.380779,0.287422 -0.620355,0.668346 -1.087809,1.725953 -1.179628,2.668895 -0.04174,0.428774 -0.03675,0.455424 0.0385,0.205314 0.04756,-0.158091 0.153512,-0.342858 0.235445,-0.410611 0.08193,-0.06776 0.192734,-0.208537 0.246224,-0.312873 0.07172,-0.139893 0.155096,-0.183004 0.317562,-0.16424 0.197715,0.02286 0.22047,0.05909 0.221906,0.353935 8.85e-4,0.182234 0.07006,0.430511 0.155359,0.557669 0.125435,0.18699 0.13681,0.26641 0.06175,0.43114 -0.0506,0.11107 -0.124994,0.20195 -0.16531,0.20195 -0.04032,0 -0.09866,0.19115 -0.129653,0.4248 -0.03099,0.23363 -0.09248,0.49231 -0.136649,0.57483 -0.102933,0.19233 -0.485118,0.20343 -0.485118,0.0141 0,-0.0747 -0.09238,-0.2571 -0.205301,-0.40512 -0.112914,-0.14805 -0.209173,-0.37326 -0.213909,-0.50048 -0.0079,-0.21116 -0.01804,-0.20269 -0.11687,0.0972 -0.131017,0.39755 -0.151403,0.91583 -0.03876,0.98544 0.04517,0.028 0.08212,0.17791 0.08212,0.33333 0,0.15541 0.03695,0.28257 0.08212,0.28257 0.04517,0 0.08649,0.23096 0.09183,0.51326 0.0088,0.46348 0.12112,1.16053 0.144807,0.89847 0.01741,-0.19248 0.154046,-0.0244 0.20621,0.25367 0.08989,0.47919 0.602829,1.18231 1.207865,1.65572 0.73594,0.57583 1.174523,1.13746 1.391699,1.78213 0.168297,0.49957 0.172984,0.68665 0.0339,1.35357 -0.04381,0.21011 -0.01897,0.28096 0.136802,0.39006 0.359449,0.25177 1.16437,0.10991 1.253071,-0.22086 0.08878,-0.33101 0.05249,-0.42365 -0.408251,-1.04209 -0.697481,-0.93624 -1.286216,-1.8718 -1.546336,-2.45732 -0.226163,-0.50908 -0.232067,-0.55552 -0.167021,-1.31392 0.08828,-1.02941 0.09132,-1.38283 0.01482,-1.728 -0.051,-0.23015 -0.04312,-0.26483 0.04107,-0.1806 0.0748,0.0748 0.10579,0.46817 0.109868,1.3947 0.0054,1.21879 0.01789,1.31715 0.225576,1.7708 0.256675,0.56064 0.648383,1.22722 1.260537,2.14504 0.68353,1.02484 0.641118,0.984 0.861564,0.8296 0.299079,-0.20949 0.341209,-0.15257 0.06976,0.0943 -0.317954,0.28909 -0.424556,0.88904 -0.214838,1.2091 0.214766,0.32778 0.343081,0.26336 0.309766,-0.15551 -0.01588,-0.19965 0.01045,-0.4306 0.05851,-0.51325 0.07036,-0.121 0.08809,-0.0703 0.09112,0.26033 0.0041,0.45007 0.04343,0.54296 0.288661,0.68202 0.258976,0.14685 0.513389,0.11394 0.652304,-0.0843 z"
         id="path7" /></g></g></svg>
